<svg width="800" height="800" viewBox="0 0 800 800" fill="none" xmlns="http://www.w3.org/2000/svg">
<path d="M2.5139 162.397C44.3534 282.708 132.432 419.36 256.514 543.441C380.596 667.523 517.247 755.602 637.558 797.441C653.899 803.097 671.946 799.057 684.246 786.847L767.476 703.616L786.87 684.223C804.378 666.715 804.378 638.253 786.87 620.746L658.029 491.995C640.521 474.487 612.06 474.487 594.552 491.995L559.627 526.921C541.49 545.057 512.58 546.853 492.288 531.051C452.155 499.806 412.38 464.701 373.863 426.183C335.345 387.665 300.24 347.891 268.995 307.757C253.192 287.466 254.987 258.645 273.125 240.419L308.051 205.493C325.559 187.985 325.559 159.523 308.051 142.015L179.21 13.1749C161.702 -4.33304 133.241 -4.33304 115.733 13.1749L96.3394 32.5683L13.1093 115.798C0.897777 128.01 -3.14252 146.057 2.5139 162.397Z" fill="#F59D7E"/>
</svg>
