<svg width="778" height="800" viewBox="0 0 778 800" fill="none" xmlns="http://www.w3.org/2000/svg">
<path d="M560.049 728.337C565.518 745.953 556.297 764.718 539.024 771.19C482.108 792.513 428.513 800 359.099 800C168.302 800 0.492676 663.246 0.492676 437.928C0.491061 203.477 170.602 0 430.365 0C632.669 0 777.509 139.086 777.509 332.208C777.509 500.019 683.25 605.735 559.116 605.735C505.106 605.735 465.984 578.168 460.277 517.247H457.98C422.311 575.887 370.605 605.735 309.684 605.735C234.942 605.735 180.934 550.571 180.934 456.315C180.934 316.121 284.401 188.497 449.926 188.497C477.489 188.497 507.135 192.255 533.051 198.286C563.885 205.461 583.796 235.232 578.729 266.482L552.236 429.874C540.709 497.736 548.762 528.758 580.955 529.881C630.385 531.057 692.428 467.822 692.428 335.632C692.428 186.213 595.888 70.0969 417.729 70.0969C241.866 70.0969 87.8196 208.058 87.8196 427.591C87.8196 619.541 210.848 728.762 382.081 728.762C427.648 728.762 475.274 721.103 515.83 706.38C524.59 703.202 534.266 703.751 542.614 707.89C550.962 712.031 557.272 719.405 560.036 728.305L560.049 728.337ZM467.154 283.921C457.975 281.624 446.466 279.325 431.535 279.325C355.633 279.325 295.873 354.022 295.873 442.553C295.873 486.226 315.434 513.773 353.334 513.773C395.866 513.773 440.711 459.784 451.046 393.094L467.154 283.921Z" fill="#F59D7E"/>
</svg>
