<svg width="800" height="616" viewBox="0 0 800 616" fill="none" xmlns="http://www.w3.org/2000/svg">
<path d="M533.397 323.384L796.134 552.432C798.633 544.229 800 535.529 800 526.521V90.9492L533.397 323.384Z" fill="#F9BBA6"/>
<path d="M400 350.347C411.263 350.324 422.359 346.454 431.422 338.569L780.611 34.1551C764.323 13.7238 739.27 0.595703 711.109 0.595703H88.8906C60.7297 0.595703 35.6766 13.7223 19.3891 34.1551L368.578 338.569C377.628 346.454 388.738 350.324 400 350.347Z" fill="#F9BBA6"/>
<path d="M0 90.9492V526.521C0 535.529 1.36719 544.229 3.86406 552.432L266.602 323.371L0 90.9492Z" fill="#F9BBA6"/>
<path d="M467.928 380.449C448.503 397.388 424.178 405.922 400 405.899C375.822 405.922 351.484 397.377 332.072 380.449L308.877 360.231L36.1734 597.967C50.9344 608.871 69.1297 615.403 88.8906 615.403H711.109C730.87 615.403 749.064 608.871 763.825 597.967L491.122 360.231L467.928 380.449Z" fill="#F9BBA6"/>
</svg>
